<svg xmlns="http://www.w3.org/2000/svg" xmlns:xlink="http://www.w3.org/1999/xlink"
     viewBox="0 0 857.936 899"
>
  <defs>
    <style>
      .cat, .tail {
        fill: url(#linear-gradient);
      }
      .tail {
        fill-rule: evenodd;
      }
    </style>
    <linearGradient id="linear-gradient" x1="0.5" x2="0.5" y2="1" gradientUnits="objectBoundingBox">
      <stop offset="0" stop-color="#f8440d"/>
      <stop offset="1" stop-color="#ff721a"/>
    </linearGradient>
  </defs>
  <g id="Group_43" data-name="Group 43" transform="translate(-155.277 -261.5)">
    <path class="cat" d="M312.988,718.418h-.05c-38.3,0-79.588-.881-126.237-2.691-39.846-1.546-77.045-3.526-106.934-5.117L79.6,710.6l-.051,0h-.011c-29.217-1.555-52.3-2.784-67.484-3.1.26-8.176.525-15.525,1.132-22.663a128.694,128.694,0,0,1,3.321-21.091A62.113,62.113,0,0,1,24.1,645.533,45.778,45.778,0,0,1,38.056,631.5c11.053-7.135,26.942-10.91,40.961-14.24l.007,0,.018,0c7.868-1.87,15.3-3.635,20.579-5.746,5.853-2.34,8.533-4.885,8.435-8.008-.168-5.365-8.663-13.1-20.421-23.8l-.005-.005c-7.912-7.2-17.758-16.163-27.4-26.632A198.686,198.686,0,0,1,33.055,516.5a211.741,211.741,0,0,1-17.132-40.012,323.272,323.272,0,0,1-10.71-45.257A425.158,425.158,0,0,1,.175,384.108c-.8-15.246-.838-30.591-.12-45.608a410.241,410.241,0,0,1,4.053-41.355c1.88-12.473,4.4-24.989,7.5-37.2,2.87-11.316,6.215-22.412,10.224-33.923,3.533-10.147,7.532-20.458,12.224-31.522a554.968,554.968,0,0,1,28.33-57.313A500.752,500.752,0,0,1,93.056,89.5c10.8-14.8,20.634-26.715,30.051-36.439A163.6,163.6,0,0,1,154.055,27.5,141.135,141.135,0,0,1,168.6,19.616c4.671-2.2,9.626-4.276,15.149-6.334,10.264-3.824,20.926-7,31.236-10.063l.164-.049C218.071,2.3,221.087,1.4,224.055.5q-2.182,13.394-4.336,26.6l-2.12,13-.418,2.56-1.939,11.892c-2.051,12.579-4.106,25.186-6.187,37.952,8.6,1.273,16.466,2.706,24.057,4.38,8.4,1.853,16.562,4.019,24.943,6.62,7.529,2.337,17.249,5.627,25.658,10.362a56.122,56.122,0,0,1,10.714,7.659,35.386,35.386,0,0,1,7.627,9.979c3.305,6.6,4.446,14.48,5.653,22.824v.012c1.527,10.55,3.106,21.459,9.346,30.165a48.01,48.01,0,0,0,10.772,10.554,98.7,98.7,0,0,0,14.8,8.81c11.364,5.641,25.256,10.625,36.418,14.631l.014.005c-4.179,8.746-7.672,16.007-11.385,23.2-4.329,8.382-8.291,15.325-12.114,21.227a113.717,113.717,0,0,1-13.615,17.515,69.577,69.577,0,0,1-7.61,6.821,53.371,53.371,0,0,1-8.275,5.24c-11.4,5.778-24.71,6.875-37.578,7.936a184.908,184.908,0,0,0-19.015,2.211,61.288,61.288,0,0,0-8.648,2.24,38.828,38.828,0,0,0-7.759,3.613,35.438,35.438,0,0,0-12.581,13.361A27.663,27.663,0,0,0,237.607,330a19.942,19.942,0,0,0,.151,8.081,16.89,16.89,0,0,0,2.6,5.809,19.485,19.485,0,0,0,5.07,4.923c4.541,3.092,10.809,5.006,18.63,5.688,2.312.2,4.88.3,7.631.3,8.063,0,17.977-.833,31.2-2.623,11.827-1.6,24.882-3.773,38.7-6.072,4.343-.723,8.014-1.333,11.812-1.957C384.758,339,421.011,333.5,454.433,333.5h.621a238.605,238.605,0,0,1,97.333,20.914,203.136,203.136,0,0,1,38.72,22.825A152,152,0,0,1,620.055,405.5a215.555,215.555,0,0,1,19.383,29.791,190.668,190.668,0,0,1,12.7,29.291c5.817,17.2,9.493,35.675,11.921,59.918l-19,119a50.674,50.674,0,0,1-6.133,10.847,65.431,65.431,0,0,1-8.984,9.8c-6.714,6.033-15.379,11.642-25.754,16.669a227.166,227.166,0,0,1-34.843,13.065,423.04,423.04,0,0,1-42.385,9.842c-14.7,2.692-30.981,5.046-48.376,7-16.345,1.831-34.116,3.355-52.819,4.528C392.246,717.352,354.3,718.418,312.988,718.418ZM258.556,186.5a20.958,20.958,0,0,0-8.369,1.729,21.4,21.4,0,0,0-6.834,4.715,21.959,21.959,0,0,0-4.608,6.993,22.55,22.55,0,0,0,0,17.127,21.957,21.957,0,0,0,4.608,6.993,21.389,21.389,0,0,0,6.834,4.714,21.118,21.118,0,0,0,16.737,0,21.389,21.389,0,0,0,6.834-4.714,21.977,21.977,0,0,0,4.608-6.993,22.55,22.55,0,0,0,0-17.127,21.979,21.979,0,0,0-4.608-6.993,21.407,21.407,0,0,0-6.834-4.715A20.955,20.955,0,0,0,258.556,186.5Z" transform="translate(334.157 260.999)"/>
    <path class="tail" d="M9579.158,22479.4c-176.055,0-340.635-66.574-407-174-34.429-55.729-26.371-71.363,24-36,77.631,54.488,184.108,88,302,88,237.283,0,430-135.822,430-304,0-22.814-4.29-44.621-11-66,57.218,51.727,92,116.172,92,187C10009.158,22342.59,9816.443,22479.4,9579.158,22479.4Z" transform="translate(-8995.945 -21318.902)"/>
  </g>
</svg>
