<svg xmlns="http://www.w3.org/2000/svg" viewBox="0 0 705.76 1024.062">
  <path id="devCat" d="M-1850.183,5499.062h-.009a300.188,300.188,0,0,1-59.354-6.306c-9.563-1.939-19.211-4.323-28.674-7.083-9.144-2.665-18.144-5.69-26.749-8.99-24.917-9.552-44.859-20.722-59.271-33.2-15.322-13.262-24.112-27.8-26.126-43.2-2.184-16.706,3.514-35.136,14.871-48.094a50.336,50.336,0,0,1,15.539-12.113,44.14,44.14,0,0,1,19.705-4.6,48.109,48.109,0,0,1,6.919.511,68.165,68.165,0,0,1,13.844,3.7,134.481,134.481,0,0,1,14.714,6.588c10.051,5.153,20.335,11.5,31.221,18.217l.011.006c22.675,13.992,46.122,28.462,67.82,31.83a66.72,66.72,0,0,0,10.208.791c17.137,0,34.356-6.732,49.794-19.468,13.038-10.753,24.113-25.362,30.388-40.079a72.729,72.729,0,0,0,5.628-21.465,67.322,67.322,0,0,0-1.017-19.61,85.627,85.627,0,0,0-5.788-17.944,145.178,145.178,0,0,0-8.685-16.454,76.179,76.179,0,0,0-11.179-14.984,63.107,63.107,0,0,0-19.167-12.846c-9.019-4.069-20.178-7.3-34.115-9.867-15.307-2.825-33.635-4.806-56.028-6.056-20.728-1.155-46.707-1.746-77.218-1.746-42.662,0-96.346,1.132-164.12,3.46-60.463,2.076-126.264,4.887-189.9,7.606l0-.068c.254-8,.518-16.264,1.153-24.147a142.009,142.009,0,0,1,3.42-22.686,67,67,0,0,1,7.952-19.628,49.12,49.12,0,0,1,6.383-8.188,48.017,48.017,0,0,1,8.367-6.851c11.709-7.579,28.525-11.61,43.36-15.166l.009,0c8.349-2,16.234-3.892,21.837-6.15,6.209-2.5,9.053-5.209,8.95-8.535-.177-5.683-9.165-13.786-21.6-25-8.442-7.612-18.943-17.079-29.213-28.16a207.6,207.6,0,0,1-28.943-38.869,220.536,220.536,0,0,1-18.04-42.522,340.21,340.21,0,0,1-11.077-48.077,489.017,489.017,0,0,1-5.063-98.533c.715-15,2.119-29.826,4.17-44.051,1.932-13.4,4.514-26.762,7.671-39.73a452.982,452.982,0,0,1,23.395-69.837,581.132,581.132,0,0,1,30.165-60.967,543.423,543.423,0,0,1,32.645-50.732,323.929,323.929,0,0,1,32.1-38.293,184.525,184.525,0,0,1,33.046-26.729,174.844,174.844,0,0,1,17.606-9.606c5.645-2.69,11.624-5.226,18.28-7.746,12.368-4.686,25.237-8.6,37.68-12.391l.017-.005-.886,5.464q-4.649,28.586-9.3,57.175-2.941,18.089-5.882,36.178l.027,0c16.81,2.494,34.192,5.074,52.542,10.783,10.954,3.411,19.742,7.154,26.867,11.446a60.749,60.749,0,0,1,11.125,8.437,40.258,40.258,0,0,1,7.981,10.745c3.494,7,4.758,15.215,6.1,23.918,1.7,11.049,3.455,22.469,10.089,31.751a50.22,50.22,0,0,0,11.468,11.194,104.848,104.848,0,0,0,15.789,9.313c11.646,5.718,25.438,10.681,38.776,15.479h0l0,0-.014.03c-7.835,16.44-15.936,33.44-24.964,47.529a122.362,122.362,0,0,1-14.478,18.845,73.611,73.611,0,0,1-8.084,7.327,55.653,55.653,0,0,1-8.78,5.6c-12.109,6.152-26.291,7.133-40.006,8.078l-.022,0a191.077,191.077,0,0,0-20.176,2.092,62.955,62.955,0,0,0-9.176,2.294,39.75,39.75,0,0,0-8.223,3.807,36.923,36.923,0,0,0-13.253,14.3,29.918,29.918,0,0,0-2.981,8.768,22.043,22.043,0,0,0,.208,8.727,18.691,18.691,0,0,0,2.794,6.313,21.114,21.114,0,0,0,5.419,5.35c4.848,3.364,11.523,5.437,19.841,6.165,2.389.208,5.039.315,7.876.315,8.519,0,18.991-.908,32.956-2.864,12.489-1.75,26.285-4.124,40.892-6.638l.713-.124c3.879-.668,7.888-1.355,11.906-2.042,33.2-5.641,71.594-11.663,107.12-11.663h.625c75.2.15,137.378,27.319,175.09,76.5a205.1,205.1,0,0,1,23.936,40.6,268.782,268.782,0,0,1,15.484,45.1,305.68,305.68,0,0,1,7.758,45.693,274.029,274.029,0,0,1,.761,42.367,208.216,208.216,0,0,1-5.37,36.077,201.958,201.958,0,0,1-10.071,30.645c-7.933,19.023-18.123,35.906-27.977,52.236l.01.032c5.268,16.83,10.716,34.231,14.944,51.45,2.276,9.263,4.024,17.73,5.346,25.885a228.077,228.077,0,0,1,2.789,26.059,189.523,189.523,0,0,1-.564,26.283,177.333,177.333,0,0,1-4.5,26.5,181.226,181.226,0,0,1-8.96,26.723,202.637,202.637,0,0,1-13.947,26.935,219.8,219.8,0,0,1-19.354,26.757,202.351,202.351,0,0,1-24.754,24.673c-19.912,16.61-41.867,28.033-65.259,33.952A195.714,195.714,0,0,1-1850.183,5499.062Zm-237.959-847.584a25.281,25.281,0,0,0-9.938,2.012,25.424,25.424,0,0,0-8.117,5.486,25.513,25.513,0,0,0-5.472,8.136,25.5,25.5,0,0,0-2.006,9.965,25.507,25.507,0,0,0,2.006,9.966,25.512,25.512,0,0,0,5.472,8.135,25.422,25.422,0,0,0,8.117,5.486,25.283,25.283,0,0,0,9.938,2.012,25.29,25.29,0,0,0,9.938-2.012,25.407,25.407,0,0,0,8.115-5.486,25.522,25.522,0,0,0,5.471-8.135,25.49,25.49,0,0,0,2.007-9.966,25.487,25.487,0,0,0-2.007-9.965,25.532,25.532,0,0,0-5.471-8.136,25.41,25.41,0,0,0-8.115-5.486A25.287,25.287,0,0,0-2088.142,4651.478Z" transform="translate(2350.002 -4475)" />
</svg>
