<svg xmlns="http://www.w3.org/2000/svg" xmlns:xlink="http://www.w3.org/1999/xlink" viewBox="0 0 38.7 38.7">
  <defs>
    <clipPath id="clip-path">
      <path id="Path_35" data-name="Path 35" d="M22.8,18.9H61.5V57.6H22.8Z"/>
    </clipPath>
  </defs>
  <g id="Group_1" data-name="Group 1" transform="translate(-22.8 -18.9)" clip-path="url(#clip-path)">
    <path id="Path_1" data-name="Path 1" d="M50.1,49.7l-3.3.5-4.4.5-2.9.1-2.8-.1-2-.7-1.9-2-1.5-4.2-.3-.9-2-.7-1.1-1.9-.8-2.7.9-2.4,2.1-.7,1.7.8.8,1.8,1-.2.3-.4-.3-1.9-.1-2.4.5-3.3V27l1.5-2.4,2.6-1.9,4.6-2,5.1.7,4.4,3.2,2,3.3,1.3,2.4.3,5.9-1,5.1L53,46l-1.7,2.4" fill="#f0d6b7"/>
    <path id="Path_2" data-name="Path 2" d="M47.4,63.8l-11.7.5v2l1,6.9-.5.6L28,70.9l-.6-1-.8-9.2-1.9-5.5-.4-1.3,6.5-4.5,2-.8,1.8,2.2,1.6,1.4,1.8.6.8.2,1,4.3.7.9,1.9-.7L41.2,60l7.1,3.4-.9.4" fill="#345161"/>
    <path id="Path_3" data-name="Path 3" d="M28,35.3l2.1-.7,1.7.8.8,1.8,1-.2.2-1-.5-1.9.5-4.5-.4-2.5,1.5-1.7,3.2-2.5-.9-1.2L32.7,24l-1.9,1.5-1.1,2.3L28.2,30l-.5,2.6.3,2.7" fill="#6d6c6d"/>
    <path id="Path_4" data-name="Path 4" d="M31.4,27.7s1.2-3,6.1-4.5.2-1.1.2-1.1l-5.3,2-2,2-.9,1.6h1.9m-2.5,7.1s-1.7-5.7,4.8-6.5l-.2-1-4.5,1-1.3,4.3.3,2.8.9-.6" fill="#dbd8d7"/>
    <path id="Path_5" data-name="Path 5" d="M31.5,42.4l1.1-1a.8.8,0,0,1,.6.6c.1.6.3,5.7,3.8,8.5.3.3-2.6-.4-2.6-.4L31.8,46m14.7-5.2s.2-2.5.9-2.3a.964.964,0,0,1,.7.9s-1.7,1-1.6,1.4m6.8-9.1a2.028,2.028,0,0,0-1.5,1.5c-.1,1.2,1.5.2,1.7.2M43.4,31.8s-1.8.2-1.8,1.4,2,1.1,2.6.6M32.3,37.1s-3.1-1.9-3.4-.1-1.1,3.1.5,5l-1.1-.3-1-2.5L27,36.7l1.9-2,2.1.2,1.2,1,.1,1.2M33.8,32s1.4-7.2,8.4-8.6c5.8-1.1,8.8.2,10,1.6,0,0-5.1-6.1-10-4.3-4.9,1.9-8.5,5.3-8.4,7.5a21.126,21.126,0,0,1,0,3.8m18.9-6.2s-2.4-.1-2.5,2a1.727,1.727,0,0,0,.2.7s1.9-2.1,3-1" fill="#f6e3cd"/>
    <path id="Path_6" data-name="Path 6" d="M42.4,28.7s-.4-3.2-3.2-1.4c-1.8,1.2-1.6,2.9-1.3,3.3.3.3.2,1,.5.5.2-.4.2-1.9,1.1-2.3.8-.4,2.3-.9,2.9-.1" fill="#f6e3cd"/>
    <path id="Path_7" data-name="Path 7" d="M34.7,50.8,27,54.2s3.2,12.6,1.6,16.6l-1.1-.4-.1-4.8-2.1-9.1L24.4,54l8-5.4,2.3,2.2m.8,7,1.1,1.3V64H35.3s-.2-3.4-.2-3.8.2-1.9.2-1.9m.2,6.4-3.7.2,1.1.7,2.6.4" fill="#48738b"/>
    <path id="Path_8" data-name="Path 8" d="M48.1,63.9l3-.1.7,7.5-3.1.4-.6-7.8" fill="#345161"/>
    <path id="Path_9" data-name="Path 9" d="M48.9,63.9l4.6-.2s1.9-4.7,1.9-5S57,51.8,57,51.8L53.3,48l-.7-.7-2,2v7.6l-1.7,7" fill="#345161"/>
    <path id="Path_10" data-name="Path 10" d="M50.9,63.3l-2.9.6.4,2.3c1.1.5,2.9-.8,2.9-.8M51,49l5.7,4.3.2-2-4.3-4L51,49" fill="#48738b"/>
    <path id="Path_11" data-name="Path 11" d="M38.4,80l-1.7-6.9L35.9,68l-.1-3.7,7.7-.4h4.8l-.4,8.6.7,6.6-.1,1.2-6.2.5L38.4,80" fill="#fff"/>
    <path id="Path_12" data-name="Path 12" d="M47,63.8s-.4,8.5.8,14.5a15.46,15.46,0,0,1-6,2l6.9-.2.8-.5-1-13.4-.3-2.9" fill="#dbd8d7"/>
    <path id="Path_13" data-name="Path 13" d="M52,70.7l3.2-.9,6-.3.9-2.8-1.6-4.8-1.9-.2-2.6.7-2.5,1.2-1.3-.2-1,.4" fill="#fff"/>
    <path id="Path_14" data-name="Path 14" d="M51.9,69a10.2,10.2,0,0,1,2.5-.9l-.9-4.5,1.1-.4s.7,4.3.7,4.7c0,0,4.6.2,5,.2a6.973,6.973,0,0,0,.7-3.8l.9,2.6.1,1.5-1.3,2-1.5.3-2.5-.1-.8-1.1-2.8.5-.9.3" fill="#dbd8d7"/>
    <path id="Path_15" data-name="Path 15" d="M48.7,63.2l-1.8-4.6L45,56s.4-1.1,1-1.1h1.9l1.8.7-.2,3-.8,4.6" fill="#fff"/>
    <path id="Path_16" data-name="Path 16" d="M49.1,61.7s-2.3-4.4-2.3-5.1c0,0,.4-1,1-.7a14.291,14.291,0,0,1,1.8.9V55.2l-2.8-.6-1.9.2,3.2,7.5.7.1" fill="#dbd8d7"/>
    <path id="Path_17" data-name="Path 17" d="M39.1,50.9l-2.3-.2L34.7,50v.7l1,1.1L39,53.3" fill="#fff"/>
    <path id="Path_18" data-name="Path 18" d="M35.4,51.2s2.5,1.1,3.4.8l.1,1-2.3-.5-1.4-1,.2-.3" fill="#dbd8d7"/>
    <path id="Path_19" data-name="Path 19" d="M52,55.1a13.8,13.8,0,0,1-3.7-.5c.1-.4-.1-.9.1-1.2a4.154,4.154,0,0,1,1.3-.3,2.3,2.3,0,0,0-1.4-.2c0-.3-.2-.5-.2-.7.8-.3,2.6-2.1,3.6-1.5.5.3.7,1.9.7,2.7a5.284,5.284,0,0,1-.4,1.7" fill="#d23933"/>
    <path id="Path_20" data-name="Path 20" d="M52,55.1a13.8,13.8,0,0,1-3.7-.5c.1-.4-.1-.9.1-1.2a4.154,4.154,0,0,1,1.3-.3,2.3,2.3,0,0,0-1.4-.2c0-.3-.2-.5-.2-.7.8-.3,2.6-2.1,3.6-1.5.5.3.7,1.9.7,2.7a5.284,5.284,0,0,1-.4,1.7Z" fill="#c62528"/>
    <path id="Path_21" data-name="Path 21" d="M45.4,52.9v.3c-.4.3-1.1.3-1.6.5a4.256,4.256,0,0,1,1.7.4v.8c-.8.5-1.5,1.3-2.5,1.9-.4.2-2,.9-2.5.7-.3-.1-.3-.4-.4-.7a14.56,14.56,0,0,1-.8-2.7c-.1-1.3-.2-3.4,1.2-3.1a10.138,10.138,0,0,1,3.2,1.2c.6.2.9.6,1.7.7" fill="#d23933"/>
    <path id="Path_22" data-name="Path 22" d="M45.4,52.9v.3c-.4.3-1.1.3-1.6.5a4.256,4.256,0,0,1,1.7.4v.8c-.8.5-1.5,1.3-2.5,1.9-.4.2-2,.9-2.5.7-.3-.1-.3-.4-.4-.7a14.56,14.56,0,0,1-.8-2.7c-.1-1.3-.2-3.4,1.2-3.1a10.138,10.138,0,0,1,3.2,1.2c.6.2.9.6,1.7.7Z" fill="#c62528"/>
    <path id="Path_23" data-name="Path 23" d="M46.1,54.4c-.1-.7-.3-.9-.2-1.5,1.9-1.2,2.2,2.1.2,1.5" fill="#d23933"/>
    <path id="Path_24" data-name="Path 24" d="M46.1,54.4c-.1-.7-.3-.9-.2-1.5C47.8,51.7,48.1,55,46.1,54.4Z" fill="#c62528"/>
    <path id="Path_25" data-name="Path 25" d="M48.8,54.9s-.6-.8-.2-1.1c.4-.2.8,0,1.1-.4s0-.7.1-1.1a1.107,1.107,0,0,1,.9-.7c.4-.1,1.6-.2,1.7.2l-.5-1.5-1-.3-3.1,1.8-.2.9v1.8m-7.4,3.1c-.1-1.3-.2-2.5-.3-3.8-.2-1.9.4-1.6,2.1-1.6.3,0,1.6.3,1.6.5.4.9-.7.7.5,1.4,1.1.6,2.9-.3,2.5-1.6-.2-.3-1.2-.1-1.6-.3-.6-.3-1.3-.7-1.9-1-.8-.4-2.7-1-3.5-.4-2.2,1.5.1,5.2.9,6.8" fill="#ee3e3b"/>
    <path id="Path_26" data-name="Path 26" d="M42.4,28.7c-2.2-.5-3.3.9-4,2.4-.6-.1-.4-1-.2-1.4.4-1.1,2-2.6,3.3-2.3.5.1,1.3.6.9,1.3m10.8,2.5h.1a22.85,22.85,0,0,0,1.6,3.1c-.4,1-3.2,1.9-3.2.1.6-.3,1.6-.1,2.2-.4a5.784,5.784,0,0,1-.7-2.8m-9.7.1a9.858,9.858,0,0,0,1.3,2.5c.3.3.9.7.6,1.5a2.178,2.178,0,0,1-.9.7c-1.1.3-3.5.1-2.7-1.3.9,0,2.1.6,2.7-.1-.4-.8-1.3-2.4-1-3.3m9.3,8.8a9.36,9.36,0,0,1-6,1.9,1.691,1.691,0,0,1-.2-2.3c.3.5.1,1.4.9,1.5,1.5.3,3.2-.9,4.3-1.3.7-1.1-.1-1.5-.7-2.2-1.2-1.5-2.9-3.3-2.8-5.5.5-.4.5.6.6.7a18.692,18.692,0,0,0,3.4,4.7c.3.3.8.6.8.8.2.6-.4,1.3-.3,1.7m-21-1c-.5-.3-.6-1.5-1.2-1.6-.8-.1-.7,1.6-.7,2.6-.6-.5-.7-2.1-.3-3-.5-.2-.7.3-1,.4.4-2.4,3.7-1.1,3.2,1.6m22,2.1c-.7,1.4-1.8,3-4,3a3.268,3.268,0,0,1,0-1.4,11.177,11.177,0,0,0,4-1.6m-10.4.9c1.4.7,3.9.8,5.8.8a6.15,6.15,0,0,1,.1,1.4c-2.4.1-5.3-.5-5.9-2.2m-.3,1.4c1,2.4,4.3,2.1,7,2.1a1.387,1.387,0,0,1-.7.8,7.225,7.225,0,0,1-4.6,0c-.8-.4-1.3-1.4-1.7-1.9-.2-.3-1.2-1,0-1" fill="#221f1f"/>
    <path id="Path_27" data-name="Path 27" d="M52.7,56.8a52.794,52.794,0,0,1-3.5,5.6,25.5,25.5,0,0,0,.9-6.5,1.945,1.945,0,0,1,2.6.9" fill="#80afc3"/>
    <path id="Path_28" data-name="Path 28" d="M58.8,63.7c-1.3.3-2.1,1.5-3.4,1.4a4.323,4.323,0,0,1,3.4-1.4m.5,2a17.745,17.745,0,0,1-3.3.2c.5-.8,2.4-.5,3.3-.2m.4,1.7c-1.2,0-2.6,0-3.7-.1.6-.7,2.9-.2,3.7.1" fill="#221f1f"/>
    <path id="Path_29" data-name="Path 29" d="M50.5,72.1a32.494,32.494,0,0,1,.7,4.5,4.883,4.883,0,0,1-1.9.4c-.1-1.3-.2-3.4-.2-4.7.5,0,1.1-.3,1.4-.2" fill="#dbd8d7"/>
    <path id="Path_30" data-name="Path 30" d="M48.7,50.7A10.1,10.1,0,0,0,47.1,52a3.478,3.478,0,0,1-2.8-.8c0-.1.1,0,.1-.1,1.2.5,2.9-.3,4.3-.4" fill="#f0d6b7"/>
    <path id="Path_31" data-name="Path 31" d="M41.7,59.7c.4-1.6,1.8-2.4,3.1-3.3a28.041,28.041,0,0,1,3,6,33.288,33.288,0,0,1-6.1-2.7" fill="#80afc3"/>
    <path id="Path_32" data-name="Path 32" d="M49.1,72.3a36.954,36.954,0,0,0,.2,4.7,5.33,5.33,0,0,0,1.9-.4c.1-1.6-.5-3.1-.7-4.5-.3-.1-.9.2-1.4.2ZM35.8,65a70.044,70.044,0,0,0,2.9,14.2,19.024,19.024,0,0,0,10.3.2c-.5-2.6-.3-5.8-.6-8.5-.2-2.1-.1-4.2-.4-6.3-3.7-.9-8.7-.3-12.2.4Zm13-.5c0,2.2.1,4.4.3,6.7a14.344,14.344,0,0,0,2.2-.4c-.3-2.1-.2-4.6-.8-6.5a4.954,4.954,0,0,0-1.7.2Zm4.3-.4a5.652,5.652,0,0,0-1.3,0c.2,1.8.6,3.8.8,5.7.6,0,.9-.3,1.4-.4a10.634,10.634,0,0,0-.9-5.3Zm6.6,6.1a2.788,2.788,0,0,0,1.7-3.5,17.188,17.188,0,0,0-1.1-3.8c-.3-.5-1.2-1.2-2-.7-1.2.8-3.3,1-4.1,1.9a27.233,27.233,0,0,1,.7,5.3c1.5.1,3.3-.4,4.5.1a17.635,17.635,0,0,0-2.7.7,7.5,7.5,0,0,0,3,0ZM47.8,62.4a28.041,28.041,0,0,0-3-6c-1.3.9-2.7,1.7-3.1,3.3A33.289,33.289,0,0,0,47.8,62.4ZM50,55.9a25.5,25.5,0,0,1-.9,6.5,52.8,52.8,0,0,0,3.5-5.6A1.882,1.882,0,0,0,50,55.9ZM47.5,55c-.5-.1-.9.6-1.6.3a1.756,1.756,0,0,0-.4.5c1.5,1.8,2.1,4.3,3.2,6.3.6-2,.5-4.1.7-6.3C48.6,55.9,48.1,55.1,47.5,55Zm-1.6-2.1c-.1.6.1.8.2,1.5C48.1,55,47.8,51.7,45.9,52.9Zm-2.2-.7A10.138,10.138,0,0,0,40.5,51c-1.4-.3-1.2,1.9-1.2,3.1a12.543,12.543,0,0,0,.8,2.7c.1.3.1.6.4.7a7.827,7.827,0,0,0,2.5-.7,23.481,23.481,0,0,0,2.5-1.9v-.8a4.256,4.256,0,0,0-1.7-.4c.5-.2,1.2-.2,1.6-.5v-.3c-.8-.1-1.1-.5-1.7-.7Zm-8.1-1.5c-.7.7,2,1.7,2.8,1.7,0-.4.3-.9.2-1.2C37.6,51,36.3,51.2,35.6,50.7Zm8.7.3a.1.1,0,0,1-.1.1,3.478,3.478,0,0,0,2.8.8c.6-.4,1.1-.9,1.6-1.3C47.3,50.8,45.6,51.6,44.3,51Zm8,2.4c0-.8-.2-2.4-.7-2.7-1-.6-2.9,1.2-3.6,1.5a1.445,1.445,0,0,1,.2.7,2.2,2.2,0,0,1,1.4.2,4.154,4.154,0,0,0-1.3.3c-.1.3,0,.8-.1,1.2a13.8,13.8,0,0,0,3.7.5,2.674,2.674,0,0,0,.4-1.7Zm-17.9-2c-.2-.2-1.7-2.1-1.9-2A30.572,30.572,0,0,0,25,54.1c2.2,4.6,3,10.3,3.2,15.8,2.5,1.2,4.6,2.8,8,3-.4-2.7-.7-5.2-1-7.8-.8-.4-2.1,0-2.9-.1,0-1,1.2-.4,1.3-1.1.1-.5-.7-.5-.4-1.3.6.2,1,.7,1.6.9.6-1.3,0-3.6.1-4.8,0-.2.1-1.1.6-1,.4.1,0,2.5,0,3.5a4.785,4.785,0,0,0,.3,2.5c3.2-.4,6.5-.7,10.1-.8a15.031,15.031,0,0,1-2.7-1.2c-.6-.3-2.3-1-2.4-1.5-.3-.8.7-1.3.8-2-1.6.9-2-.9-2.3-2.1a12.908,12.908,0,0,1-.6-2.6,21.515,21.515,0,0,1-4.3-2.1Zm16.5-1.8c2.3-1.1,2.7,4.1,1.8,5.8.1.5.6.7.8,1.1-1.3,2.3-2.7,4.4-4,6.6,1-.6,2.3-.1,3.5-.6.4-.2.7-1.1,1-1.9a37.4,37.4,0,0,0,2.2-6.7,11.271,11.271,0,0,0,.3-1.8c-.1-.7-1.1-1.3-1.6-1.7-.9-.8-1.5-1.5-2.5-2.3-.4.6-1.2,1-1.5,1.5ZM29.3,29.5c-1.1,1.2-.8,3.4-.7,5a2.894,2.894,0,0,1,4.5,2.2c.9,0,.3-1.2.2-1.9-.6-2.4.9-5,.1-7.2a5.514,5.514,0,0,0-4.1,1.9ZM37,22.6c-2.4.7-5.6,2.5-6.6,4.7.8-.1,1.3-.5,2.1-.6a3.352,3.352,0,0,0,1,0c.7-.2,1.2-1.7,1.7-2.2s1.1-.8,1.5-1.3c.3-.1.6-.1.7-.5-.2,0-.3-.1-.4-.1Zm12.7.7c-2.5-1.4-6.8-2.5-9.5-1.2C38,23.2,35,25,34,27.3c.9,2.2-.3,4.2-.4,6.4,0,1.2.6,2.2.6,3.5-.3.5-1.3.6-2,.6-.2-1.1-.6-2.4-1.8-2.6a2.749,2.749,0,0,0-3,2.6c-.1,1.7,1.3,4.5,3.3,4.3.8-.1,1-.8,1.8-.8.4.9-.7,1.2-.8,1.8a5.16,5.16,0,0,0,.2,1.1,18.466,18.466,0,0,0,1.9,4.5c1,1.4,3,1.6,5.1,1.8.4-.8,1.8-.7,2.7-.5a8.3,8.3,0,0,1-2.9-2.4,6.232,6.232,0,0,1-2-3.6c1.8,2.5,3.3,4.7,6.6,5.8,2.5.8,5.4-.4,7.3-1.7a9.162,9.162,0,0,0,1.8-2.2,19.341,19.341,0,0,0,2.9-11.6c-.1-1.7-.1-3.5-.7-4.6-.6-1.2-2.7-2.3-3.9-1.2-.2-1.2,1-1.9,2.4-1.5a12.046,12.046,0,0,0-3.4-3.7Zm4.7,39c2-1,5.7-2.6,6.9,0a16.913,16.913,0,0,1,1.2,3.6c.3,1.4-.4,4.4-1.8,4.9a9.249,9.249,0,0,1-4.4.1,1.794,1.794,0,0,1-.5-.7,7.008,7.008,0,0,0-3,.5c.1.8-.5,1-1,1.1-.4,1.5.8,3.5.5,4.9-.2,1-1.4,1.2-2.3,1.3a7.083,7.083,0,0,0,.1,1.5,2.133,2.133,0,0,1-2,1.3c-2.9.3-7.3.5-10-.5a53.47,53.47,0,0,1-2-6.4c-2.7.3-4.9-1.2-6.9-2.1-.7-.3-1.7-.5-2-1.1a6.856,6.856,0,0,1-.2-2.6,40.659,40.659,0,0,0-1-7.6,32.089,32.089,0,0,0-1.2-3.3,33.82,33.82,0,0,1-1.1-3.4c-.2-1.5,1.2-1.6,2.1-2.3,1.4-1,2.6-1.6,4.1-2.5a11.559,11.559,0,0,0,2-1.3c.3-.6-.5-1.5-.8-2a4.867,4.867,0,0,1-.6-2.2,4.568,4.568,0,0,1-2.9-1.8,7,7,0,0,1-.8-6.2c.1-.2.4-.5.4-.7.1-.5-.2-1.1-.2-1.6-.1-2.6.4-4.9,2.2-5.7.7-2.9,3.3-3.8,5.8-5.3a20.814,20.814,0,0,1,3-1.3c3.7-1.4,9.4-1.1,12.5,1.2a16.36,16.36,0,0,1,4.1,4.6c2,4,1.8,10.7.4,15.6a13.493,13.493,0,0,1-.8,2.4c-.3.6-1.1,1.6-1,2.1s1.9,1.8,2.2,2.2c.7.7,2,1.5,2.1,2.3a9.367,9.367,0,0,1-.6,2.9,70.717,70.717,0,0,1-2.5,8.1Z" fill="#221f1f"/>
    <path id="Path_33" data-name="Path 33" d="M41.2,42.7a1.434,1.434,0,0,1,1.5,0s-1,.2-.9,1.8l-.4-.1c0,.1-.4-1.4-.2-1.7" fill="#f6e3cd"/>
    <path id="Path_34" data-name="Path 34" d="M48.3,56.8a.4.4,0,1,1-.4-.4c.2-.1.4.1.4.4m.5,2a.4.4,0,1,1-.4-.4.43.43,0,0,1,.4.4" fill="#1c1919"/>
  </g>
</svg>
