<svg xmlns="http://www.w3.org/2000/svg" xmlns:xlink="http://www.w3.org/1999/xlink" width="176" height="176" viewBox="0 0 176 176"><defs><linearGradient id="a" x1="0.5" x2="0.5" y2="2.398" gradientUnits="objectBoundingBox"><stop offset="0" stop-color="#509bdd"/><stop offset="0.163" stop-color="#4a8fcc"/><stop offset="1" stop-color="#284e6f"/></linearGradient><filter id="b" x="29" y="32" width="118" height="118" filterUnits="userSpaceOnUse"><feOffset dy="3" input="SourceAlpha"/><feGaussianBlur stdDeviation="3" result="c"/><feFlood flood-opacity="0.161"/><feComposite operator="in" in2="c"/><feComposite in="SourceGraphic"/></filter></defs><g transform="translate(-12 -12)"><g transform="translate(12 12)" fill="#ececec" stroke="#909090" stroke-width="1"><circle cx="88" cy="88" r="88" stroke="none"/><circle cx="88" cy="88" r="87.5" fill="none"/></g><circle cx="81" cy="81" r="81" transform="translate(19 19)" fill="url(#a)"/><g transform="matrix(1, 0, 0, 1, 12, 12)" filter="url(#b)"><rect width="100" height="100" rx="11" transform="translate(38 38)" fill="#fff"/></g><circle cx="5" cy="5" r="5" transform="translate(55 55)" fill="#4d96d6"/><circle cx="5" cy="5" r="5" transform="translate(135 55)" fill="#4d96d6"/><circle cx="5" cy="5" r="5" transform="translate(135 135)" fill="#4d96d6"/><circle cx="5" cy="5" r="5" transform="translate(55 135)" fill="#4d96d6"/><path d="M26.8,42.615c0,3.009-1.57,7.934-5.285,7.934s-5.285-4.925-5.285-7.934,1.57-7.934,5.285-7.934S26.8,39.605,26.8,42.615Zm42.319-7.272c0,4.593-.461,9.46-2.52,13.679-5.457,11.03-20.461,10.771-31.2,10.771-10.915,0-26.811.389-32.485-10.771A30.821,30.821,0,0,1,0,35.343,24.763,24.763,0,0,1,5.976,18.986a22.541,22.541,0,0,1-1.109-7.027c0-3.1.706-4.651,2.1-7.459,6.523,0,10.7,1.3,15.666,5.184a55.155,55.155,0,0,1,12.772-1.44A49.671,49.671,0,0,1,46.985,9.569C51.88,5.724,56.056,4.5,62.507,4.5c1.411,2.808,2.1,4.363,2.1,7.459A22.224,22.224,0,0,1,63.5,18.9a24.81,24.81,0,0,1,5.616,16.444Zm-9.259,7.272c0-6.321-3.845-11.894-10.583-11.894a59.2,59.2,0,0,0-8.064.864,42.308,42.308,0,0,1-6.494.461,42.567,42.567,0,0,1-6.494-.461,58.244,58.244,0,0,0-8.064-.864c-6.739,0-10.583,5.573-10.583,11.894C9.575,55.257,21.152,57.2,31.232,57.2h6.94C48.3,57.2,59.858,55.272,59.858,42.615ZM47.964,34.681c-3.715,0-5.285,4.925-5.285,7.934s1.57,7.934,5.285,7.934,5.285-4.925,5.285-7.934S51.679,34.681,47.964,34.681Z" transform="translate(65 67.7)" fill="#4d96d6"/></g></svg>