<svg width="581" height="406" viewBox="0 0 581 406" fill="none" xmlns="http://www.w3.org/2000/svg">
<path d="M578.595 129.193C579.833 128.432 580.517 127.111 580.517 125.755C580.517 125.053 580.335 124.343 579.949 123.697C578.821 121.805 576.381 121.168 574.473 122.271C574.473 122.271 517.78 155.003 489.709 171.209C509.528 159.183 557.696 129.955 557.696 129.955C558.944 129.197 559.635 127.869 559.635 126.507C559.635 125.809 559.455 125.103 559.073 124.46C557.947 122.559 555.503 121.919 553.592 123.023C553.592 123.023 481.719 164.519 416.377 202.243H459.565C514.396 168.592 578.595 129.193 578.595 129.193Z" fill="#005BBB"/>
<path d="M563.443 201.291C562.311 199.405 559.877 198.775 557.973 199.875C557.973 199.875 556.308 200.835 553.872 202.243H563.853C563.759 201.916 563.625 201.596 563.443 201.291Z" fill="#005BBB"/>
<path d="M577.5 176.825C578.747 176.067 579.436 174.74 579.436 173.379C579.436 172.68 579.255 171.972 578.873 171.329C577.748 169.431 575.305 168.791 573.393 169.893C573.393 169.893 554.572 180.76 552.284 182.081C553.58 181.299 567.84 172.676 567.84 172.676C569.091 171.919 569.785 170.589 569.785 169.225C569.785 168.528 569.604 167.821 569.224 167.18C568.101 165.277 565.655 164.636 563.744 165.74C563.744 165.74 534.023 182.899 500.52 202.243H535.695C549.805 193.663 577.5 176.825 577.5 176.825Z" fill="#005BBB"/>
<path d="M568.705 192.639C569.952 191.881 570.64 190.555 570.64 189.193C570.64 188.493 570.459 187.787 570.079 187.143C568.952 185.245 566.509 184.605 564.599 185.708C564.599 185.708 546.084 196.396 535.96 202.243H552.917C561.048 197.296 568.705 192.639 568.705 192.639Z" fill="#005BBB"/>
<path d="M554.627 116.895C555.861 116.135 556.544 114.813 556.544 113.46C556.544 112.756 556.361 112.047 555.975 111.401C554.848 109.508 552.408 108.873 550.501 109.975C550.501 109.975 510.589 133.016 499.211 139.587C511.785 131.992 553.26 106.937 553.26 106.937C554.513 106.181 555.207 104.849 555.207 103.485C555.207 102.789 555.027 102.083 554.647 101.44C553.524 99.5373 551.077 98.896 549.165 100C549.165 100 484.283 137.459 442.761 161.431C496.256 128.829 569.24 84.3534 569.24 84.3534C570.483 83.5934 571.172 82.268 571.172 80.908C571.172 80.2093 570.989 79.5013 570.607 78.8573C569.481 76.9587 567.039 76.3213 565.129 77.4227C565.129 77.4227 522.757 101.887 510.828 108.775C515.888 105.727 544.34 88.5907 544.34 88.5907C545.596 87.8347 546.292 86.504 546.292 85.1373C546.292 84.4413 546.112 83.736 545.733 83.0947C544.611 81.1907 542.164 80.548 540.249 81.652C540.249 81.652 491.572 109.755 473.743 120.049C497.648 105.605 552.771 72.3014 552.771 72.3014C554.021 71.544 554.716 70.2133 554.716 68.8493C554.716 68.1533 554.536 67.4467 554.153 66.804C553.031 64.9013 550.585 64.26 548.673 65.364C548.673 65.364 458.852 117.223 377.195 164.365C459.417 113.988 549.181 58.9893 549.181 58.9893C550.421 58.2293 551.107 56.908 551.107 55.552C551.107 54.8494 550.923 54.14 550.539 53.4947C549.413 51.6013 546.972 50.964 545.063 52.0667C545.063 52.0667 528.771 61.472 527.44 62.2413C527.443 62.24 528.261 61.748 528.261 61.748C529.523 60.9933 530.221 59.6587 530.221 58.288C530.221 57.5947 530.041 56.8907 529.664 56.2507C528.543 54.344 526.093 53.6973 524.177 54.804C524.177 54.804 441.751 102.392 371.128 143.167C451.02 94.2547 539.5 40.0827 539.5 40.0827C540.741 39.324 541.425 38.0013 541.425 36.644C541.425 35.944 541.244 35.2347 540.86 34.588C539.733 32.6947 537.293 32.0573 535.384 33.1587C535.384 33.1587 445.789 84.8867 365.38 131.311C431.149 91.0627 509.979 42.824 509.979 42.824C511.219 42.0654 511.905 40.7413 511.905 39.384C511.905 38.684 511.723 37.9747 511.339 37.3294C510.211 35.4347 507.771 34.7974 505.861 35.8987C505.861 35.8987 423.452 83.4787 354.232 123.443C425.071 80.1427 508.093 29.3934 508.093 29.3934C509.335 28.6347 510.023 27.3107 510.023 25.9533C510.023 25.2533 509.84 24.544 509.457 23.9C508.329 22.004 505.889 21.3654 503.979 22.468C503.979 22.468 426.035 67.4693 369.291 100.231C415.44 72.192 485.335 29.7254 485.335 29.7254C486.58 28.9694 487.271 27.64 487.271 26.2787C487.271 25.5814 487.088 24.8747 486.707 24.2293C485.584 22.332 483.139 21.6907 481.227 22.7947C481.227 22.7947 401.385 68.8907 337.928 105.528C397.135 69.416 473.536 22.8174 473.536 22.8174C474.78 22.06 475.468 20.7347 475.468 19.376C475.468 18.676 475.285 17.968 474.903 17.324C474.024 15.84 472.34 15.156 470.733 15.4413C471.684 14.6627 472.229 13.5293 472.229 12.348C472.229 11.6547 472.051 10.952 471.673 10.3093C470.552 8.40267 468.103 7.7587 466.188 8.86403C466.188 8.86403 345.125 78.7587 227.705 146.552C258.299 127.324 301.993 99.8613 301.993 99.8613C303.209 99.0987 303.879 97.788 303.879 96.448C303.879 95.7387 303.692 95.0227 303.301 94.372C302.168 92.492 299.737 91.8653 297.836 92.9627C297.836 92.9627 265.147 111.837 251.272 119.848C260.376 114.177 287.161 97.4987 287.161 97.4987C288.385 96.7347 289.061 95.42 289.061 94.0747C289.061 93.368 288.875 92.6533 288.485 92.0053C287.355 90.12 284.921 89.4907 283.017 90.5893C283.017 90.5893 240.107 115.364 209.783 132.872C235.645 116.548 274.853 91.8014 274.853 91.8014C276.065 91.036 276.732 89.7293 276.732 88.3893C276.732 87.6813 276.544 86.9627 276.151 86.3107C275.016 84.4333 272.588 83.808 270.688 84.9067C270.688 84.9067 221.383 113.372 176.823 139.099C220.524 111.051 268.724 80.1107 268.724 80.1107C269.92 79.3427 270.579 78.0453 270.579 76.7173C270.579 76.0027 270.388 75.28 269.988 74.6253C268.852 72.756 266.428 72.1387 264.535 73.232C264.535 73.232 220.469 98.6734 186.981 118.008C224.939 93.9427 271.561 64.3853 271.561 64.3853C272.771 63.6187 273.435 62.3147 273.435 60.98C273.435 60.2693 273.245 59.5494 272.851 58.8987C271.716 57.0227 269.289 56.3987 267.391 57.4947C267.391 57.4947 217.093 86.5333 170.067 113.685C209.668 88.1307 254.069 59.4747 254.069 59.4747C255.261 58.7067 255.913 57.412 255.913 56.088C255.913 55.3707 255.723 54.6467 255.323 53.992C254.577 52.7693 253.28 52.0907 251.944 52.0707C252.244 51.4947 252.412 50.856 252.412 50.204C252.412 49.5054 252.228 48.7947 251.845 48.1507C250.917 46.592 249.105 45.892 247.427 46.3027C247.7 46.1347 253.088 42.8053 253.088 42.8053C254.317 42.0427 254.999 40.724 254.999 39.3733C254.999 38.6707 254.815 37.9574 254.428 37.312C253.299 35.4214 250.861 34.788 248.955 35.8893C248.955 35.8893 196.047 66.436 145.089 95.8573C185.065 69.9747 229.252 41.3653 229.252 41.3653C230.443 40.5973 231.092 39.3027 231.092 37.9813C231.092 37.2627 230.9 36.5374 230.5 35.8814C229.36 34.0187 226.941 33.4027 225.048 34.4973C225.048 34.4973 193.212 52.8773 176.793 62.3573C198.7 48.5067 234.577 25.8267 234.577 25.8267C235.788 25.06 236.453 23.7547 236.453 22.4173C236.453 21.708 236.264 20.9893 235.872 20.3373C234.737 18.46 232.309 17.836 230.409 18.9334C230.409 18.9334 223.844 22.724 223.408 22.976C224.021 22.2453 224.368 21.3334 224.368 20.3934C224.368 19.6894 224.183 18.976 223.795 18.328C222.665 16.4414 220.229 15.8094 218.324 16.9107C218.324 16.9107 174.772 42.056 135.843 64.5307C172.867 40.496 214.568 13.424 214.568 13.424C215.753 12.6547 216.401 11.3627 216.401 10.0427C216.401 9.32403 216.211 8.59734 215.808 7.94267C214.667 6.08001 212.251 5.46668 210.359 6.55734C210.359 6.55734 176.309 26.2147 153.315 39.492C167.035 30.676 193.375 13.7507 193.375 13.7507C194.571 12.9827 195.227 11.6854 195.227 10.3587C195.227 9.64269 195.036 8.91868 194.637 8.26535C193.499 6.39735 191.077 5.77867 189.184 6.87334C189.184 6.87334 167.405 19.4467 158.036 24.856C163.54 21.296 180.421 10.3733 180.421 10.3733C181.612 9.604 182.263 8.30933 182.263 6.98666C182.263 6.26933 182.072 5.54399 181.671 4.88933C180.531 3.02533 178.112 2.41069 176.22 3.50136C176.22 3.50136 147.151 20.284 122.439 34.5547C138.625 23.5787 161.268 8.22536 161.268 8.22536C162.415 7.44802 163.037 6.18132 163.037 4.88799C163.037 4.15599 162.839 3.416 162.421 2.752C161.269 0.915999 158.872 0.318679 156.995 1.40268C156.995 1.40268 127.095 18.664 97.6507 35.664C115.293 23.0107 135.727 8.356 135.727 8.356C136.82 7.56934 137.408 6.33466 137.408 5.07866C137.408 4.32933 137.199 3.57202 136.764 2.89735C135.6 1.09335 133.224 0.518677 131.365 1.59201C131.365 1.59201 114.317 11.436 98.2027 20.7387C104.331 15.8533 113.744 8.34401 113.744 8.34401C114.736 7.55201 115.261 6.38003 115.261 5.19203C115.261 4.40937 115.031 3.61734 114.56 2.92534C113.372 1.18401 111.043 0.653347 109.217 1.70668L68.1 25.4454C66.8067 26.1934 66.084 27.5467 66.084 28.9387C66.084 29.6214 66.2587 30.3147 66.6254 30.9494C67.3454 32.196 68.636 32.8974 69.976 32.9454C61.7 39.5467 51.1667 47.9454 51.1667 47.9454C50.1747 48.7374 49.652 49.9107 49.652 51.0973C49.652 51.8813 49.88 52.672 50.3507 53.3653C51.54 55.1053 53.868 55.6387 55.6947 54.584C55.6947 54.584 62.884 50.4333 64.6814 49.3947C47.0387 62.048 26.6053 76.7027 26.6053 76.7027C25.512 77.4867 24.924 78.7227 24.924 79.98C24.924 80.7293 25.1347 81.4867 25.568 82.1613C26.732 83.9653 29.108 84.54 30.968 83.4653C30.968 83.4653 51.6494 71.5253 64.456 64.132C48.2627 75.1107 25.6147 90.4653 25.6147 90.4653C24.4693 91.2427 23.848 92.5093 23.848 93.8027C23.848 94.5333 24.0467 95.2747 24.464 95.9373C25.6133 97.776 28.0133 98.372 29.8907 97.288C29.8907 97.288 40.5707 91.1214 42.5107 90.0014C36.9933 93.572 20.0947 104.504 20.0947 104.504C18.9053 105.275 18.2533 106.568 18.2533 107.891C18.2533 108.608 18.4453 109.333 18.8467 109.989C19.9853 111.852 22.404 112.469 24.2973 111.376C24.2973 111.376 41.3653 101.521 46.388 98.6213C32.7027 107.416 6.38668 124.325 6.38668 124.325C5.18934 125.092 4.53335 126.389 4.53335 127.717C4.53335 128.432 4.72534 129.156 5.12401 129.811C6.26134 131.679 8.68268 132.296 10.5773 131.201C10.5773 131.201 49.072 108.977 80.7667 90.68C43.716 114.731 2.00268 141.809 2.00268 141.809C0.817342 142.58 0.169342 143.872 0.169342 145.193C0.169342 145.912 0.361346 146.637 0.764013 147.293C1.90401 149.156 4.32134 149.769 6.21201 148.677C6.21201 148.677 11.396 145.685 11.6653 145.529C11.052 146.261 10.7027 147.172 10.7027 148.112C10.7027 148.816 10.8893 149.529 11.276 150.177C12.4067 152.065 14.8427 152.696 16.7467 151.596C16.7467 151.596 46.5333 134.399 60.696 126.223C38.7987 140.065 2.92934 162.743 2.92934 162.743C1.71868 163.508 1.05201 164.815 1.05201 166.151C1.05201 166.861 1.24001 167.58 1.63334 168.232C2.76801 170.109 5.19468 170.732 7.09468 169.637C7.09468 169.637 51.9627 143.732 92.2027 120.499C52.2293 146.379 8.04401 174.985 8.04401 174.985C6.85601 175.755 6.20401 177.049 6.20401 178.371C6.20401 179.088 6.39601 179.813 6.79734 180.469C7.93868 182.333 10.3547 182.948 12.248 181.856C12.248 181.856 20.252 177.235 20.844 176.892C20.8373 176.896 19.9787 177.427 19.9787 177.427C18.7467 178.189 18.068 179.507 18.068 180.859C18.068 181.561 18.252 182.273 18.6387 182.92C19.164 183.799 19.9773 184.384 20.8813 184.672C20.7427 184.757 16.8387 187.144 16.8387 187.144C15.5987 187.904 14.912 189.228 14.912 190.585C14.912 191.285 15.096 191.995 15.4787 192.64C16.6053 194.536 19.0467 195.173 20.956 194.071C20.956 194.071 68.9747 166.345 112.925 140.972C73.316 166.533 28.9093 195.189 28.9093 195.189C27.7173 195.959 27.064 197.253 27.064 198.577C27.064 199.293 27.2547 200.019 27.6547 200.675C28.092 201.389 28.72 201.92 29.4333 202.243H32.756C32.8747 202.188 32.992 202.129 33.1067 202.063C33.1067 202.063 74.024 178.44 102.988 161.717C81.008 175.652 56.1133 191.433 39.064 202.243H57.1933C75.296 191.791 98.228 178.552 120.243 165.841C100.66 178.411 80.1773 191.556 63.528 202.243H83.5667C88.54 199.372 93.3747 196.581 97.7973 194.028C93.7213 196.6 89.3133 199.381 84.78 202.243H162.764C169.984 198.075 177.055 193.992 183.76 190.121C177.299 194.06 170.633 198.125 163.885 202.243H208.715C215.688 198.217 222.648 194.197 229.532 190.224C223.055 194.183 216.476 198.204 209.869 202.243H233.86C234.884 201.652 235.905 201.061 236.925 200.473C235.964 201.061 235 201.652 234.033 202.243H258.637C261.981 200.311 265.319 198.385 268.641 196.465C265.509 198.385 262.361 200.311 259.207 202.243H415.928C482.236 161.441 554.627 116.895 554.627 116.895Z" fill="#005BBB"/>
<path d="M573.776 155.515C575.013 154.755 575.695 153.432 575.695 152.079C575.695 151.376 575.513 150.667 575.128 150.02C574 148.127 571.56 147.491 569.652 148.592C569.652 148.592 556.351 156.273 555.284 156.889C556.031 156.439 567.172 149.712 567.172 149.712C568.424 148.956 569.12 147.625 569.12 146.261C569.12 145.564 568.939 144.859 568.559 144.216C567.436 142.313 564.989 141.671 563.076 142.776C563.076 142.776 505.9 175.787 460.075 202.243H497.731C537.612 177.736 573.776 155.515 573.776 155.515Z" fill="#005BBB"/>
<path d="M92.3187 288.965C91.0787 289.724 90.392 291.048 90.392 292.405C90.392 293.104 90.576 293.815 90.9587 294.46C92.0854 296.356 94.5267 296.992 96.436 295.889C96.436 295.889 179.611 247.867 258.637 202.243H234.033C168.864 242.124 92.3187 288.965 92.3187 288.965Z" fill="#FFD500"/>
<path d="M32.756 202.243H29.4333C30.464 202.707 31.6747 202.735 32.756 202.243Z" fill="#FFD500"/>
<path d="M18.4507 215.311C17.2427 216.077 16.5787 217.381 16.5787 218.717C16.5787 219.427 16.768 220.147 17.1613 220.799C18.2973 222.675 20.724 223.299 22.6227 222.201C22.6227 222.201 36.8613 213.98 57.1933 202.243H39.064C26.6933 210.085 18.4507 215.311 18.4507 215.311Z" fill="#FFD500"/>
<path d="M75.6467 284.287C74.404 285.045 73.7173 286.369 73.7173 287.727C73.7173 288.427 73.9 289.136 74.2827 289.781C75.4107 291.677 77.8507 292.315 79.76 291.212C79.76 291.212 161.697 243.907 233.86 202.243H209.869C144.192 242.388 75.6467 284.287 75.6467 284.287Z" fill="#FFD500"/>
<path d="M416.377 202.243C413.945 203.647 411.52 205.048 409.109 206.439C411.372 205.045 413.647 203.647 415.928 202.243H259.207C181.961 249.535 100.295 299.533 100.295 299.533C99.0547 300.293 98.3693 301.617 98.3693 302.972C98.3693 303.675 98.5507 304.384 98.9347 305.029C99.908 306.665 101.856 307.344 103.6 306.795C103.373 306.929 96.5827 310.999 96.5827 310.999C95.324 311.752 94.6254 313.087 94.6254 314.457C94.6254 315.152 94.804 315.856 95.1814 316.496C96.3027 318.403 98.752 319.048 100.667 317.943C100.667 317.943 194.587 263.717 281.827 213.351C199.635 263.709 109.887 318.697 109.887 318.697C108.648 319.457 107.964 320.779 107.964 322.136C107.964 322.837 108.147 323.545 108.529 324.192C109.656 326.085 112.097 326.724 114.007 325.62C114.007 325.62 173.839 291.077 202.133 274.741C178.251 289.171 123.148 322.463 123.148 322.463C121.897 323.22 121.204 324.549 121.204 325.915C121.204 326.611 121.384 327.316 121.764 327.96C122.887 329.861 125.333 330.504 127.245 329.399C127.245 329.399 159.805 310.601 166.497 306.739C161.409 309.803 132.889 326.977 132.889 326.977C131.636 327.733 130.94 329.065 130.94 330.432C130.94 331.129 131.12 331.833 131.499 332.475C132.621 334.379 135.068 335.023 136.981 333.917C136.981 333.917 215.028 288.859 275.089 254.181C221.619 286.768 148.651 331.237 148.651 331.237C147.407 331.995 146.717 333.321 146.717 334.681C146.717 335.38 146.899 336.087 147.281 336.733C148.407 338.631 150.849 339.268 152.76 338.165C152.76 338.165 190.703 316.259 200.876 310.387C188.319 317.972 146.867 343.012 146.867 343.012C145.613 343.767 144.92 345.099 144.92 346.463C144.92 347.159 145.101 347.864 145.481 348.508C146.604 350.411 149.051 351.052 150.964 349.948C150.964 349.948 232.543 302.849 305.719 260.6C237.645 302.491 160.176 350.16 160.176 350.16C158.943 350.92 158.26 352.243 158.26 353.595C158.26 354.297 158.444 355.009 158.829 355.655C159.957 357.547 162.395 358.183 164.304 357.081C164.304 357.081 215.42 327.568 237.704 314.701C217.872 326.736 169.695 355.972 169.695 355.972C168.445 356.728 167.755 358.056 167.755 359.419C167.755 360.117 167.937 360.823 168.317 361.468C169.443 363.367 171.887 364.008 173.797 362.904C173.797 362.904 252.055 317.721 318.6 279.303C262.235 313.895 191.511 357.299 191.511 357.299C190.272 358.057 189.588 359.38 189.588 360.735C189.588 361.436 189.772 362.147 190.156 362.793C191.284 364.685 193.724 365.321 195.632 364.22C195.632 364.22 208.401 356.849 209.383 356.283C208.616 356.744 197.356 363.541 197.356 363.541C196.105 364.297 195.411 365.628 195.411 366.993C195.411 367.691 195.591 368.396 195.971 369.037C197.093 370.94 199.54 371.583 201.453 370.477C201.453 370.477 268.204 331.939 319.001 302.611C266.784 334.699 199.564 376.003 199.564 376.003C198.329 376.763 197.645 378.083 197.645 379.439C197.645 380.14 197.828 380.851 198.213 381.496C199.341 383.389 201.78 384.025 203.689 382.923C203.689 382.923 220.067 373.468 221.773 372.481C220.485 373.259 206.263 381.86 206.263 381.86C205.009 382.616 204.316 383.945 204.316 385.309C204.316 386.008 204.499 386.713 204.877 387.356C206.001 389.257 208.447 389.9 210.36 388.796C210.36 388.796 253.62 363.819 269.709 354.528C258.864 361.124 222.875 383.005 222.875 383.005C221.629 383.763 220.94 385.088 220.94 386.449C220.94 387.149 221.12 387.857 221.503 388.5C222.627 390.399 225.071 391.039 226.981 389.935C226.981 389.935 256.523 372.879 263.493 368.856C257.428 372.545 229.911 389.281 229.911 389.281C228.665 390.039 227.976 391.365 227.976 392.728C227.976 393.425 228.157 394.135 228.539 394.779C229.665 396.676 232.107 397.316 234.02 396.211C234.02 396.211 297.233 359.715 350.756 328.813C308.957 354.824 254.336 388.812 254.336 388.812C253.111 389.576 252.435 390.889 252.435 392.236C252.435 392.941 252.621 393.656 253.009 394.305C254.14 396.191 256.575 396.82 258.479 395.723C258.479 395.723 292.299 376.195 304.251 369.296C292.789 376.345 259.9 396.573 259.9 396.573C258.664 397.332 257.983 398.653 257.983 400.008C257.983 400.709 258.165 401.42 258.549 402.067C259.677 403.96 262.117 404.593 264.024 403.493C264.024 403.493 323.229 369.312 376.779 338.397C333.649 365.607 282.283 398.012 282.283 398.012C281.071 398.776 280.404 400.083 280.404 401.423C280.404 402.132 280.592 402.851 280.984 403.501C282.119 405.379 284.547 406.004 286.447 404.909C286.447 404.909 335.64 376.505 376.852 352.712C352.681 368.048 315.903 391.385 315.903 391.385C314.695 392.151 314.031 393.456 314.031 394.792C314.031 395.501 314.22 396.223 314.615 396.873C315.751 398.749 318.176 399.371 320.076 398.275C320.076 398.275 367.715 370.769 414.9 343.528C398.199 354.652 373.695 370.975 373.695 370.975C372.531 371.749 371.899 373.028 371.899 374.332C371.899 375.057 372.095 375.792 372.505 376.452C373.652 378.301 376.059 378.904 377.941 377.816L498.619 308.145C500.544 307.032 501.205 304.568 500.091 302.641C498.98 300.715 496.517 300.056 494.588 301.168C494.588 301.168 484.909 306.756 482.848 307.947C499.567 296.809 524.083 280.48 524.083 280.48C525.244 279.705 525.877 278.428 525.877 277.125C525.877 276.397 525.681 275.664 525.271 275.004C524.124 273.155 521.719 272.552 519.833 273.639C519.833 273.639 493.865 288.633 482.909 294.959C507.067 279.631 543.84 256.296 543.84 256.296C545.047 255.529 545.711 254.225 545.711 252.892C545.711 252.18 545.523 251.461 545.128 250.808C543.992 248.933 541.565 248.311 539.667 249.407C539.667 249.407 494.163 275.679 460.299 295.231C503.387 268.045 554.732 235.653 554.732 235.653C555.944 234.888 556.611 233.583 556.611 232.244C556.611 231.533 556.423 230.815 556.029 230.165C554.897 228.287 552.469 227.661 550.568 228.757C550.568 228.757 520.128 246.332 510.679 251.788C522.149 244.732 555.052 224.496 555.052 224.496C556.288 223.736 556.971 222.415 556.971 221.061C556.971 220.359 556.787 219.648 556.403 219.001C555.273 217.109 552.835 216.475 550.927 217.576C550.927 217.576 500.599 246.632 465.659 266.805C507.483 240.779 562.116 206.784 562.116 206.784C563.341 206.02 564.016 204.707 564.016 203.36C564.016 202.985 563.961 202.611 563.853 202.243H553.872C547.872 205.705 537.189 211.875 535.073 213.096C537.948 211.347 545.624 206.679 552.917 202.243H535.96C533.667 203.567 531.803 204.643 530.683 205.289C532.012 204.481 533.721 203.443 535.695 202.243H500.52C485.087 211.152 468.851 220.528 454.348 228.9C468.261 220.349 483.243 211.145 497.731 202.243H460.075C457.157 203.928 454.284 205.585 451.476 207.207C454.144 205.571 456.844 203.913 459.565 202.243H416.377Z" fill="#FFD500"/>
<path d="M28.3333 224.833C27.136 225.601 26.48 226.9 26.48 228.227C26.48 228.941 26.6707 229.665 27.0693 230.319C28.2067 232.187 30.628 232.805 32.524 231.712C32.524 231.712 59.6467 216.052 83.5667 202.243H63.528C43.0213 215.405 28.3333 224.833 28.3333 224.833Z" fill="#FFD500"/>
<path d="M48.1347 272.841C46.8907 273.599 46.2013 274.925 46.2013 276.284C46.2013 276.983 46.3853 277.692 46.7667 278.336C47.8933 280.233 50.336 280.872 52.2453 279.769C52.2453 279.769 124.583 238.007 173.429 209.804C127.268 237.852 57.368 280.32 57.368 280.32C56.12 281.077 55.432 282.405 55.432 283.765C55.432 284.465 55.612 285.173 55.9933 285.815C57.1187 287.716 59.5627 288.355 61.4733 287.251C61.4733 287.251 135.761 244.363 208.715 202.243H163.885C108.779 235.853 48.1347 272.841 48.1347 272.841Z" fill="#FFD500"/>
<path d="M32.6987 235.115C31.4867 235.88 30.82 237.188 30.82 238.525C30.82 239.235 31.0067 239.953 31.4 240.604C32.5347 242.48 34.964 243.107 36.8627 242.011C36.8627 242.011 66.6867 224.791 77.9813 218.271C68.884 223.936 42.1067 240.611 42.1067 240.611C40.8813 241.373 40.2053 242.688 40.2053 244.033C40.2053 244.74 40.392 245.455 40.78 246.103C41.912 247.989 44.3453 248.62 46.2493 247.52C46.2493 247.52 88.2667 223.26 115.848 207.337C85.2507 226.568 41.5507 254.031 41.5507 254.031C40.336 254.796 39.6667 256.104 39.6667 257.445C39.6667 258.153 39.852 258.871 40.2453 259.521C41.3773 261.401 43.8067 262.028 45.708 260.929C45.708 260.929 57.1373 254.333 57.8067 253.945C57.2853 254.645 56.9773 255.479 56.9773 256.344C56.9773 257.037 57.156 257.741 57.5333 258.381C58.6547 260.289 61.104 260.935 63.0213 259.828C63.0213 259.828 115.999 229.243 162.764 202.243H84.78C60.5347 217.545 32.6987 235.115 32.6987 235.115Z" fill="#FFD500"/>
</svg>
